<mxfile host="app.diagrams.net" modified="2021-06-30T10:53:54.761Z" agent="5.0 (Windows NT 10.0; Win64; x64) AppleWebKit/537.36 (KHTML, like Gecko) Chrome/91.0.4472.124 Safari/537.36" etag="ejfEJdx6lokRdg42GkaX" version="14.8.2" type="github">
  <diagram name="Page-1" id="e7e014a7-5840-1c2e-5031-d8a46d1fe8dd">
    <mxGraphModel dx="1102" dy="582" grid="1" gridSize="10" guides="1" tooltips="1" connect="1" arrows="1" fold="1" page="1" pageScale="1" pageWidth="1169" pageHeight="826" background="none" math="0" shadow="0">
      <root>
        <mxCell id="0" />
        <mxCell id="1" parent="0" />
        <mxCell id="vdY88RAPm3xx826wH8Ul-41" value="Customer" style="swimlane;startSize=23;" vertex="1" parent="1">
          <mxGeometry x="50" y="110" width="290" height="590" as="geometry" />
        </mxCell>
        <mxCell id="vdY88RAPm3xx826wH8Ul-47" value="" style="ellipse;html=1;shape=startState;fillColor=#000000;strokeColor=#ff0000;" vertex="1" parent="vdY88RAPm3xx826wH8Ul-41">
          <mxGeometry x="130" y="50" width="30" height="30" as="geometry" />
        </mxCell>
        <mxCell id="vdY88RAPm3xx826wH8Ul-48" value="" style="edgeStyle=orthogonalEdgeStyle;html=1;verticalAlign=bottom;endArrow=open;endSize=8;strokeColor=#ff0000;" edge="1" source="vdY88RAPm3xx826wH8Ul-47" parent="vdY88RAPm3xx826wH8Ul-41">
          <mxGeometry relative="1" as="geometry">
            <mxPoint x="145" y="140" as="targetPoint" />
          </mxGeometry>
        </mxCell>
        <mxCell id="vdY88RAPm3xx826wH8Ul-49" value="Customer Request" style="rounded=1;whiteSpace=wrap;html=1;" vertex="1" parent="vdY88RAPm3xx826wH8Ul-41">
          <mxGeometry x="85" y="140" width="120" height="40" as="geometry" />
        </mxCell>
        <mxCell id="vdY88RAPm3xx826wH8Ul-43" value="System" style="swimlane;startSize=23;" vertex="1" parent="1">
          <mxGeometry x="630" y="110" width="290" height="590" as="geometry" />
        </mxCell>
        <mxCell id="vdY88RAPm3xx826wH8Ul-50" value="Processing" style="rounded=1;whiteSpace=wrap;html=1;" vertex="1" parent="vdY88RAPm3xx826wH8Ul-43">
          <mxGeometry x="90" y="140" width="120" height="40" as="geometry" />
        </mxCell>
        <mxCell id="vdY88RAPm3xx826wH8Ul-54" value="Condition" style="rhombus;whiteSpace=wrap;html=1;fillColor=#ffffc0;strokeColor=#ff0000;" vertex="1" parent="vdY88RAPm3xx826wH8Ul-43">
          <mxGeometry x="110" y="220" width="80" height="40" as="geometry" />
        </mxCell>
        <mxCell id="vdY88RAPm3xx826wH8Ul-55" value="" style="endArrow=classic;html=1;" edge="1" parent="vdY88RAPm3xx826wH8Ul-43">
          <mxGeometry width="50" height="50" relative="1" as="geometry">
            <mxPoint x="149.5" y="180" as="sourcePoint" />
            <mxPoint x="149.5" y="220" as="targetPoint" />
          </mxGeometry>
        </mxCell>
        <mxCell id="vdY88RAPm3xx826wH8Ul-57" value="is existence" style="text;html=1;strokeColor=none;fillColor=none;align=center;verticalAlign=middle;whiteSpace=wrap;rounded=0;" vertex="1" parent="vdY88RAPm3xx826wH8Ul-43">
          <mxGeometry x="30" y="220" width="70" height="20" as="geometry" />
        </mxCell>
        <mxCell id="vdY88RAPm3xx826wH8Ul-44" value="AppScreen" style="swimlane;startSize=23;" vertex="1" parent="1">
          <mxGeometry x="340" y="110" width="290" height="590" as="geometry" />
        </mxCell>
        <mxCell id="vdY88RAPm3xx826wH8Ul-56" value="" style="endArrow=classic;html=1;" edge="1" parent="1">
          <mxGeometry width="50" height="50" relative="1" as="geometry">
            <mxPoint x="740" y="350" as="sourcePoint" />
            <mxPoint x="220" y="350" as="targetPoint" />
          </mxGeometry>
        </mxCell>
      </root>
    </mxGraphModel>
  </diagram>
</mxfile>
